<svg width="350" height="300" xmlns="http://www.w3.org/2000/svg"><g fill="none" fill-rule="evenodd"><path d="M8.865 11.979c.011.083.315.83.676 1.66.36.831.692 1.653.735 1.827.044.174.402 1.014.796 1.867.393.853.75 1.709.792 1.902.042.193.399 1.049.792 1.902.394.852.74 1.708.769 1.901.03.194.144.495.254.67.24.385 24.069 57.55 24.177 58.002.041.174.397 1.015.791 1.867.393.853.75 1.709.792 1.902.043.193.399 1.049.793 1.902.393.852.742 1.708.775 1.901.033.194.214.637.403.986.486.897 9.54 22.72 9.665 23.296.057.262.179.547.271.634.218.207 10.388 24.735 10.514 25.357.052.261.178.546.279.634.238.205 4.096 9.486 4.096 9.852 0 .368-5.127 12.763-5.364 12.969-.101.087-.226.372-.278.633-.112.564-11.074 27.13-11.575 28.051-.189.349-.369.777-.399.951-.074.426-8.358 20.432-8.794 21.236-.188.349-.37.777-.402.951-.084.447-4.564 11.276-4.983 12.044-.191.349-.373.777-.406.951-.084.448-4.564 11.276-4.983 12.045-.19.348-.371.776-.403.951-.077.421-8.629 21.042-8.92 21.507a2.27 2.27 0 0 0-.28.68c-.072.429-4.542 11.247-4.977 12.044-.19.349-.371.776-.402.951-.111.615-3.37 8.246-3.69 8.637-.178.218-.24.396-.137.396.102 0-.108.678-.466 1.506-.359.828-.922 2.183-1.252 3.011l-.6 1.505h271.149l4.107-9.112c2.258-5.012 4.255-9.218 4.436-9.346.182-.128.232-.235.113-.237-.194-.005 2.983-7.268 3.934-8.994.205-.373.401-.821.434-.995.073-.377 5.017-11.279 5.575-12.293.212-.387.414-.845.447-1.02.073-.376 5.017-11.278 5.575-12.293.213-.386.415-.844.449-1.019.076-.379 9.476-21.147 10.019-22.134.208-.378.408-.829.445-1.004.083-.397 5.002-11.261 5.551-12.259.222-.405.432-.879.465-1.053.073-.376 5.017-11.278 5.575-12.293.213-.386.414-.845.448-1.019.104-.539 5.213-11.685 5.702-12.441.254-.392.396-.713.314-.713-.198 0 3.858-8.873 4.301-9.406.191-.231.256-.419.145-.419-.111 0 .183-.749.655-1.665.472-.915.886-1.806.921-1.98.034-.175 1-2.365 2.147-4.868l2.085-4.551-.629-1.234c-.346-.678-.52-1.236-.385-1.238.134-.003.096-.11-.084-.238-.384-.273-5.984-12.603-5.874-12.933.042-.123-.049-.311-.2-.418-.254-.179-5.945-12.57-5.971-12.999-.006-.105-.193-.519-.416-.92-.576-1.038-9.912-21.709-9.978-22.091-.03-.175-.13-.388-.223-.476-.176-.165-5.832-12.63-5.882-12.963-.016-.105-.538-1.26-1.161-2.568-2.605-5.467-4.936-10.776-4.733-10.781.12-.003.07-.11-.11-.238-.289-.205-5.994-12.555-6.023-13.038-.006-.104-.193-.518-.416-.92-.576-1.037-9.912-21.708-9.978-22.091-.03-.174-.13-.388-.223-.475-.179-.168-5.835-12.639-5.879-12.964-.015-.104-.735-1.687-1.601-3.518a372.786 372.786 0 0 1-2.813-6.101l-1.239-2.774H7.62l.613 1.431c.337.786.622 1.498.632 1.58z" stroke="#FFF" stroke-width="10" fill="#14335C"/><path d="M64.016 41.13c0 .083 10.185 24.618 22.634 54.52l22.635 54.367-22.635 54.375c-12.449 29.906-22.634 54.439-22.634 54.517 0 .078 10.779.106 23.954.061l23.954-.081 22.662-54.436 22.662-54.436-22.664-54.439-22.663-54.439-23.953-.081c-13.174-.044-23.952-.012-23.952.072" fill="#F34C7C"/><path d="M231.583 95.125c12.32 29.579 22.457 54.136 22.525 54.572.083.53-7.333 18.704-22.401 54.892-12.388 29.755-22.525 54.182-22.525 54.281 0 .1 10.791.145 23.98.1l23.979-.081 6.132-14.738c3.372-8.107 13.567-32.599 22.656-54.429l16.524-39.69-22.661-54.446-22.662-54.447-23.974-.081c-13.185-.044-23.974.002-23.974.103 0 .101 10.081 24.385 22.401 53.964z" fill="#24ABE4"/><path d="M135.965 41.134c0 .086 10.184 24.622 22.63 54.525l22.63 54.369-22.63 54.357c-12.446 29.896-22.63 54.427-22.63 54.512 0 .085 10.784.118 23.965.073l23.964-.081 22.658-54.431 22.658-54.432-22.661-54.443-22.66-54.444-23.962-.081c-13.179-.044-23.962-.011-23.962.076" fill="#FBFBFB"/></g></svg>